<svg xmlns="http://www.w3.org/2000/svg" xmlns:xlink="http://www.w3.org/1999/xlink" fill="none" version="1.1" width="16" height="16" viewBox="0 0 16 16"><clipPath id="master_svg0_1719_24486/1573_21263/1806_25602"><rect x="0" y="0" width="16" height="16" rx="0"/></clipPath><g clip-path="url(#master_svg0_1719_24486/1573_21263/1806_25602)"><g><path d="M12.49991171875,13.99951171875L3.49952171875,13.99951171875C3.10150171875,14.00041171875,2.71962171875,13.84221171875,2.43885071875,13.56011171875C2.15662171875,13.27941171875,1.99841943875,12.89751171875,1.9995174408,12.49951171875L1.9995174408,5.91151171875L5.77152171875,8.75368171875L5.77152171875,5.91151171875L9.59218171875,8.79118171875L9.59218171875,5.91151171875L13.99991171875,9.232841718749999L13.99991171875,12.49951171875C13.99971171875,13.32781171875,13.32831171875,13.99931171875,12.49991171875,13.99951171875L12.49991171875,13.99951171875ZM9.49952171875,10.24951171875L9.49952171875,11.74951171875L10.99952171875,11.74951171875L10.99952171875,10.24951171875L9.49952171875,10.24951171875ZM6.49952171875,10.24951171875L6.49952171875,11.74951171875L7.99952171875,11.74951171875L7.99952171875,10.24951171875L6.49952171875,10.24951171875ZM3.49952171875,10.24951171875L3.49952171875,11.74951171875L4.99952171875,11.74951171875L4.99952171875,10.24951171875L3.49952171875,10.24951171875ZM12.75111171875,7.35276171875L10.91435171875,5.9715117187499995L11.06135171875,1.99951171875L12.53081171875,1.99951171875L12.75111171875,7.35276171875L12.75111171875,7.35276171875ZM8.93093171875,7.35276171875L7.09385171875,5.9715117187499995L7.24118171875,1.99951171875L8.71060171875,1.99951171875L8.93093171875,7.35276171875L8.93093171875,7.35276171875ZM5.11135171875,7.35276171875L3.2750217187499997,5.971091718749999L3.42202171875,1.99951171875L4.8896817187499995,1.99951171875L5.11135171875,7.35276171875L5.11135171875,7.35276171875Z" fill="#0084FF" fill-opacity="1"/></g></g></svg>